# xmcd CD database file
#
# Track frame offsets:
#	150
#	15767
#	29401
#	45500
#	65177
#	79508
#	97576
#	112364
#	126593
#	141571
#	152915
#	164498
#	178745
#	201437
#
# Disc length: 3340 seconds
#
# Revision: 0
# Processed by: cddbd v1.5.1PL0 Copyright (c) Steve Scherf et al.
# Submitted via: CDex 1.51
#
DISCID=c70d0a0e
DTITLE=Country - Family and Friends - Trucker's Guide
DYEAR=2001
DGENRE=Country
TTITLE0=I just want to dance with you
TTITLE1=Pop "A" Top
TTITLE2=Write this down
TTITLE3=Dont't close you eyes
TTITLE4=Call me lonesome
TTITLE5=It's just a matter of time
TTITLE6=There goes my heart
TTITLE7=We're from the country
TTITLE8=Drinking champagne
TTITLE9=Take your memory with you when you go
TTITLE10=Power of positive drinking
TTITLE11=You don't know me
TTITLE12=Aword from Bob Lodge
TTITLE13=data
EXTD=YEAR: 2001
EXTT0=
EXTT1=
EXTT2=
EXTT3=
EXTT4=
EXTT5=
EXTT6=
EXTT7=
EXTT8=
EXTT9=
EXTT10=
EXTT11=
EXTT12=
EXTT13=
PLAYORDER=
